<?xml version="1.0" standalone="no"?>
<!DOCTYPE svg PUBLIC "-//W3C//DTD SVG 20010904//EN"
 "http://www.w3.org/TR/2001/REC-SVG-20010904/DTD/svg10.dtd">
<svg version="1.0" xmlns="http://www.w3.org/2000/svg"
 width="636.000000pt" height="636.000000pt" viewBox="0 0 636.000000 636.000000"
 preserveAspectRatio="xMidYMid meet">
<metadata>
Created by potrace 1.14, written by Peter Selinger 2001-2017
</metadata>
<g transform="translate(0.000000,636.000000) scale(0.100000,-0.100000)"
fill="#000000" stroke="none">
<path d="M3845 5488 c-87 -32 -143 -90 -177 -184 -20 -57 -21 -76 -23 -669 -1
-336 2 -631 7 -657 11 -57 47 -91 118 -112 61 -18 387 -40 490 -33 185 12 275
108 274 288 0 78 -23 125 -74 152 -30 16 -51 18 -135 13 -55 -3 -140 -13 -188
-22 -48 -9 -90 -15 -92 -13 -10 11 34 234 91 459 72 283 86 393 65 501 -40
201 -206 330 -356 277z"/>
<path d="M3103 5416 c-107 -35 -196 -116 -232 -210 -32 -87 -29 -184 14 -358
76 -310 91 -452 104 -993 10 -409 15 -445 74 -512 44 -50 82 -63 179 -63 143
0 512 47 601 76 58 19 115 66 133 111 42 100 -6 243 -93 279 -52 22 -108 17
-290 -28 -95 -23 -174 -40 -176 -38 -6 7 19 289 45 500 31 251 33 766 5 900
-21 99 -70 210 -117 264 -63 71 -162 100 -247 72z"/>
<path d="M2031 5384 c-57 -15 -87 -30 -266 -134 -125 -72 -293 -153 -439 -212
-210 -83 -333 -164 -371 -244 -29 -62 -18 -164 28 -257 21 -43 50 -85 66 -96
36 -26 131 -51 191 -51 62 0 216 24 328 51 50 12 94 20 97 17 12 -12 46 -314
51 -458 13 -324 -39 -454 -187 -468 -94 -9 -156 49 -246 231 -54 110 -86 158
-144 216 -108 107 -223 118 -394 36 -165 -79 -245 -227 -217 -397 23 -142 130
-317 288 -475 172 -170 392 -234 651 -189 210 37 334 94 444 205 145 145 208
333 209 617 0 112 -31 546 -51 703 -5 46 -6 87 -2 91 4 4 37 17 73 30 168 58
306 152 348 237 65 130 12 332 -120 459 -101 97 -204 124 -337 88z"/>
<path d="M4550 5022 c-76 -26 -110 -45 -146 -84 -56 -59 -69 -94 -69 -188 0
-75 3 -91 29 -138 41 -73 113 -146 221 -221 149 -105 274 -211 336 -285 32
-38 59 -75 59 -82 0 -15 -83 -87 -165 -141 -86 -58 -186 -106 -305 -147 -194
-68 -283 -135 -338 -254 -35 -77 -37 -196 -5 -258 77 -146 320 -218 483 -143
86 40 168 125 311 323 290 400 448 579 666 754 57 46 118 103 137 128 72 94
82 193 31 297 -113 225 -297 172 -563 -163 l-20 -24 -25 84 c-74 240 -221 446
-371 520 -85 42 -182 50 -266 22z"/>
<path d="M2590 4375 c-205 -39 -350 -87 -391 -131 -35 -38 -36 -120 -4 -309
21 -125 28 -209 34 -392 7 -226 8 -233 31 -258 21 -22 31 -25 95 -25 79 0 352
34 401 50 54 18 87 62 92 124 4 51 2 57 -26 86 -38 38 -74 39 -197 5 -122 -34
-121 -34 -129 23 -4 26 -9 55 -12 64 -4 13 3 18 33 23 187 30 264 66 284 133
10 35 9 45 -7 79 -28 57 -63 62 -202 29 -62 -14 -119 -26 -126 -26 -14 0 -20
22 -32 115 l-6 50 99 21 c180 40 292 96 319 160 21 49 9 118 -26 157 -24 28
-34 31 -91 34 -35 1 -98 -4 -139 -12z"/>
<path d="M5161 3270 c-123 -26 -217 -127 -336 -362 -47 -94 -105 -198 -127
-232 -51 -76 -161 -215 -170 -216 -11 0 -46 121 -63 223 -30 170 -90 260 -196
291 -66 20 -174 20 -229 1 -102 -36 -170 -131 -170 -237 0 -94 47 -173 196
-325 53 -54 116 -122 142 -152 l46 -53 -54 -49 c-125 -112 -264 -218 -361
-273 -201 -114 -382 -231 -429 -277 -76 -73 -95 -117 -95 -224 0 -126 28 -199
110 -281 80 -82 143 -107 275 -108 111 -1 168 15 258 74 119 76 197 170 338
401 48 79 105 171 127 203 l40 59 52 -110 c62 -127 106 -173 186 -197 95 -29
167 -16 229 40 56 51 83 113 78 177 -6 72 -29 114 -110 204 -39 43 -95 111
-125 150 l-55 73 38 47 c75 95 382 392 507 492 186 149 241 230 241 356 1 67
-37 162 -88 223 -60 70 -158 102 -255 82z"/>
<path d="M3065 3086 c-152 -29 -295 -106 -394 -212 -101 -108 -135 -199 -135
-359 1 -200 69 -346 209 -452 136 -103 265 -143 460 -143 143 0 207 14 323 71
96 47 201 143 245 226 62 117 85 311 52 451 -45 192 -176 332 -372 398 -96 32
-276 42 -388 20z m219 -236 c120 -58 128 -236 14 -300 -57 -32 -157 -34 -208
-4 -110 64 -104 244 10 302 56 28 129 29 184 2z"/>
<path d="M1775 2899 c-140 -21 -309 -73 -374 -113 -80 -51 -121 -136 -121
-250 0 -34 18 -221 40 -416 21 -195 44 -447 49 -560 12 -277 35 -341 148 -425
161 -120 366 -168 713 -169 148 0 189 3 264 22 282 71 389 240 356 565 -13
130 -49 257 -98 351 -40 77 -131 181 -199 228 -55 37 -165 83 -238 98 l-57 12
51 23 c121 56 178 157 168 294 -15 202 -98 311 -262 346 -96 20 -282 17 -440
-6z m79 -413 c40 -17 66 -51 66 -86 0 -36 -34 -86 -71 -106 -32 -16 -209 -57
-217 -50 -9 10 -24 218 -16 226 9 9 113 27 172 29 18 0 48 -5 66 -13z m65
-532 c17 -4 46 -20 63 -36 27 -25 30 -33 25 -71 -11 -79 -73 -113 -228 -124
-102 -7 -94 -16 -104 129 l-7 97 39 4 c67 7 180 7 212 1z"/>
</g>
</svg>
